<svg width="32" height="32" viewBox="0 0 32 32" fill="none" xmlns="http://www.w3.org/2000/svg">
<rect width="32" height="32" rx="2" fill="white"/>
<path d="M18.8742 25.8805V21.8666C18.8742 21.1252 18.3556 20.5238 17.7166 20.5238H13.3628V25.8805H18.8742Z" fill="#155DFC"/>
<path d="M5 24.2062C5 22.3698 5 20.5333 5 18.6969C12.4126 16.5163 19.8251 14.3351 27.2371 12.1545C27.2371 13.991 27.2371 15.8275 27.2371 17.6639C19.8251 19.8445 12.4126 22.025 5 24.2062Z" fill="#155DFC"/>
<path d="M8.33032 6C10.1675 6 12.0046 6 13.8417 6C14.3425 8.65267 15.6535 9.92894 16.2145 10.3998C17.8323 11.7584 19.7569 11.9188 22.6445 12.1596C24.5774 12.3205 26.1755 12.24 27.2373 12.1431V17.6525C27.2418 17.5872 15.0544 18.8464 10.3456 12.7204C8.63207 10.4917 8.33159 7.83393 8.33032 6C8.77915 6 9.22734 6 9.67616 6Z" fill="#155DFC"/>
</svg>
