<svg width="180" height="180" viewBox="0 0 180 180" fill="none" xmlns="http://www.w3.org/2000/svg">
<rect width="180" height="180" rx="10" fill="white"/>
<path d="M106.652 149V125.378C106.652 121.014 103.601 117.475 99.8399 117.475H74.2168V149H106.652Z" fill="#155DFC"/>
<path d="M25 139.147C25 128.339 25 117.531 25 106.723C68.6243 93.8903 112.249 81.0536 155.869 68.2206C155.869 79.0285 155.869 89.8364 155.869 100.644C112.249 113.477 68.6243 126.31 25 139.147Z" fill="#155DFC"/>
<path d="M44.5981 32C55.41 32 66.2219 32 77.0337 32C79.9811 47.6114 87.6964 55.1225 90.9981 57.8934C100.519 65.8894 111.846 66.8329 128.84 68.2501C140.215 69.1974 149.62 68.7237 155.869 68.1531V100.577C155.895 100.193 84.1707 107.603 56.4584 71.5506C46.374 58.4342 44.6056 42.793 44.5981 32C47.2396 32 49.8772 32 52.5186 32Z" fill="#155DFC"/>
</svg>
