<svg width="180" height="180" viewBox="0 0 180 180" fill="none" xmlns="http://www.w3.org/2000/svg">
<rect width="180" height="180" rx="10" fill="black"/>
<path d="M106.652 149V125.378C106.652 121.014 103.6 117.475 99.8397 117.475H74.2166V149H106.652Z" fill="white"/>
<path d="M25 139.147C25 128.339 25 117.531 25 106.723C68.6242 93.8902 112.248 81.0536 155.869 68.2206C155.869 79.0285 155.869 89.8364 155.869 100.644C112.248 113.477 68.6242 126.31 25 139.147Z" fill="white"/>
<path d="M44.5996 32C55.4115 32 66.2233 32 77.0352 32C79.9825 47.6114 87.6978 55.1225 90.9995 57.8934C100.521 65.8893 111.847 66.8329 128.841 68.2501C140.216 69.1973 149.622 68.7237 155.871 68.1531V100.577C155.897 100.193 84.1722 107.603 56.4598 71.5506C46.3755 58.4342 44.6071 42.793 44.5996 32C47.241 32 49.8787 32 52.5201 32Z" fill="white"/>
</svg>
