<svg width="424" height="116" viewBox="0 0 424 116" fill="none" xmlns="http://www.w3.org/2000/svg">
<g clip-path="url(#clip0_1237_8143)">
<path d="M80.9548 116V92.5795C80.9548 88.2534 77.9291 84.7444 74.2006 84.7444H48.7964V116H80.9548Z" fill="black"/>
<path d="M0 106.231C0 95.5154 0 84.7998 0 74.0843C43.2515 61.361 86.503 48.634 129.751 35.9106C129.751 46.6262 129.751 57.3417 129.751 68.0573C86.503 80.7806 43.2515 93.5039 0 106.231Z" fill="black"/>
<path d="M19.4307 0C30.1501 0 40.8696 0 51.5891 0C54.5112 15.478 62.1606 22.9249 65.4341 25.6722C74.8738 33.5998 86.1037 34.5353 102.952 35.9403C114.23 36.8795 123.555 36.4099 129.751 35.8442V67.9908C129.777 67.61 58.6651 74.957 31.1895 39.2127C21.1914 26.2083 19.4381 10.7008 19.4307 0C22.0495 0 24.6646 0 27.2835 0Z" fill="black"/>
<path d="M205.002 92.698C200.386 92.698 196.117 91.8957 192.204 90.2872C188.286 88.6825 184.913 86.4307 182.076 83.5392C179.239 80.6477 177.019 77.2274 175.414 73.2858C173.805 69.3405 173.002 65.0033 173.002 60.2704C173.002 55.5375 173.805 51.2003 175.414 47.255C177.019 43.3097 179.243 39.8931 182.076 37.0016C184.909 34.1101 188.286 31.862 192.204 30.2536C196.117 28.6488 200.386 27.8428 205.002 27.8428C208.098 27.8428 210.905 28.1645 213.417 28.8078C215.928 29.4512 218.196 30.298 220.212 31.3481C222.228 32.3982 223.996 33.5962 225.516 34.9421C227.036 36.288 228.349 37.6598 229.463 39.0612C232.093 42.3335 234.02 46.0422 235.248 50.1909H227.358C226.248 47.4436 224.699 44.9625 222.712 42.7403C221.836 41.8048 220.841 40.8989 219.731 40.0225C218.621 39.1462 217.334 38.3586 215.873 37.6561C214.412 36.9536 212.773 36.3841 210.964 35.9478C209.152 35.5115 207.166 35.2897 205.002 35.2897C201.495 35.2897 198.266 35.8887 195.314 37.0867C192.363 38.2847 189.821 39.9782 187.687 42.1708C185.553 44.3598 183.888 46.9925 182.69 50.0577C181.491 53.1267 180.892 56.5285 180.892 60.2667C180.892 64.005 181.491 67.4104 182.69 70.4757C183.888 73.5447 185.553 76.1736 187.687 78.3626C189.821 80.5552 192.363 82.2487 195.314 83.4467C198.266 84.6448 201.495 85.2438 205.002 85.2438C207.221 85.2438 209.267 85.0108 211.138 84.5412C213.01 84.0753 214.689 83.4615 216.18 82.6998C217.671 81.9418 218.984 81.0766 220.127 80.1152C221.266 79.1502 222.276 78.174 223.152 77.1794C225.139 74.8425 226.689 72.1248 227.798 69.0299H235.688C234.286 73.4707 232.237 77.416 229.552 80.8621C228.383 82.3818 227.022 83.8424 225.475 85.2438C223.926 86.6451 222.143 87.9023 220.127 89.0116C218.111 90.1208 215.843 91.012 213.332 91.6849C210.817 92.3542 208.042 92.6944 205.002 92.6944V92.698Z" fill="black"/>
<path d="M258.659 91.8217C255.796 91.8217 253.092 91.2523 250.551 90.1134C248.009 88.9746 245.772 87.3957 243.844 85.3806C241.917 83.3654 240.393 80.9546 239.284 78.1518C238.174 75.3454 237.619 72.3097 237.619 69.0373C237.619 65.765 238.174 62.7256 239.284 59.9228C240.393 57.1201 241.914 54.7093 243.844 52.6941C245.772 50.6789 248.009 49.1001 250.551 47.9612C253.092 46.8224 255.796 46.2529 258.659 46.2529C261.522 46.2529 263.948 46.6634 265.934 47.4805C267.921 48.2977 269.541 49.2036 270.798 50.1982C272.056 51.1929 273.24 52.5351 274.349 54.2286H274.438V47.1293H281.451V90.9491H274.438V83.9385H274.349C273.24 85.632 272.056 86.9631 270.798 87.9245C269.541 88.8895 267.921 89.7807 265.934 90.5978C263.948 91.415 261.522 91.8254 258.659 91.8254V91.8217ZM259.535 85.2474C261.64 85.2474 263.597 84.8518 265.409 84.0642C267.222 83.2766 268.797 82.1674 270.144 80.7327C271.486 79.3018 272.541 77.5935 273.299 75.6042C274.057 73.6186 274.438 71.426 274.438 69.0299C274.438 66.6339 274.057 64.445 273.299 62.4557C272.537 60.4701 271.486 58.7618 270.144 57.3271C268.797 55.8962 267.222 54.7869 265.409 53.9956C263.597 53.208 261.64 52.8124 259.535 52.8124C257.431 52.8124 255.474 53.208 253.661 53.9956C251.849 54.7832 250.269 55.8962 248.927 57.3271C247.58 58.7581 246.53 60.4701 245.772 62.4557C245.01 64.4413 244.632 66.6339 244.632 69.0299C244.632 71.426 245.01 73.6186 245.772 75.6042C246.53 77.5898 247.584 79.2981 248.927 80.7327C250.269 82.1637 251.849 83.273 253.661 84.0642C255.474 84.8518 257.431 85.2474 259.535 85.2474Z" fill="black"/>
<path d="M288.638 47.1255H295.651V65.092H320.197V47.1255H327.211V90.9453H320.197V71.6662H295.651V90.9453H288.638V47.1255Z" fill="black"/>
<path d="M352.811 91.8217C349.948 91.8217 347.244 91.2523 344.703 90.1134C342.161 88.9746 339.924 87.3957 337.996 85.3806C336.069 83.3654 334.545 80.9546 333.439 78.1518C332.33 75.3454 331.775 72.3097 331.775 69.0373C331.775 65.765 332.33 62.7256 333.439 59.9228C334.549 57.1201 336.069 54.7093 337.996 52.6941C339.924 50.6789 342.161 49.1001 344.703 47.9612C347.244 46.8224 349.948 46.2529 352.811 46.2529C355.674 46.2529 358.1 46.6634 360.086 47.4805C362.073 48.2977 363.697 49.2036 364.954 50.1982C366.212 51.1929 367.392 52.5351 368.505 54.2286H368.594V47.1293H375.607V90.9491H368.594V83.9385H368.505C367.396 85.632 366.212 86.9631 364.954 87.9245C363.697 88.8895 362.076 89.7807 360.086 90.5978C358.1 91.415 355.674 91.8254 352.811 91.8254V91.8217ZM353.691 85.2474C355.796 85.2474 357.752 84.8518 359.565 84.0642C361.377 83.2766 362.953 82.1674 364.3 80.7327C365.642 79.3018 366.696 77.5935 367.455 75.6042C368.213 73.6186 368.594 71.426 368.594 69.0299C368.594 66.6339 368.213 64.445 367.455 62.4557C366.693 60.4701 365.642 58.7618 364.3 57.3271C362.953 55.8962 361.377 54.7869 359.565 53.9956C357.752 53.208 355.796 52.8124 353.691 52.8124C351.586 52.8124 349.63 53.208 347.817 53.9956C346.005 54.7832 344.425 55.8962 343.083 57.3271C341.736 58.7581 340.686 60.4701 339.927 62.4557C339.165 64.4413 338.788 66.6339 338.788 69.0299C338.788 71.426 339.169 73.6186 339.927 75.6042C340.686 77.5898 341.74 79.2981 343.083 80.7327C344.425 82.1637 346.005 83.273 347.817 84.0642C349.63 84.8518 351.586 85.2474 353.691 85.2474Z" fill="black"/>
<path d="M401.204 91.8217C398.341 91.8217 395.637 91.2523 393.095 90.1134C390.554 88.9746 388.316 87.3957 386.389 85.3806C384.462 83.3654 382.938 80.9546 381.829 78.1518C380.719 75.3454 380.164 72.3097 380.164 69.0373C380.164 65.765 380.719 62.7256 381.829 59.9228C382.938 57.1201 384.458 54.7093 386.389 52.6941C388.316 50.6789 390.554 49.1001 393.095 47.9612C395.637 46.8224 398.341 46.2529 401.204 46.2529C404.066 46.2529 406.493 46.6634 408.479 47.4805C410.466 48.2977 412.086 49.2036 413.343 50.1982C414.601 51.1929 415.785 52.5351 416.894 54.2286H416.983V47.1293H423.996V90.9491H416.983V83.9385H416.894C415.785 85.632 414.601 86.9631 413.343 87.9245C412.086 88.8895 410.466 89.7807 408.479 90.5978C406.493 91.415 404.066 91.8254 401.204 91.8254V91.8217ZM402.08 85.2474C404.185 85.2474 406.142 84.8518 407.954 84.0642C409.767 83.2766 411.342 82.1674 412.689 80.7327C414.031 79.3018 415.086 77.5935 415.844 75.6042C416.602 73.6186 416.983 71.426 416.983 69.0299C416.983 66.6339 416.602 64.445 415.844 62.4557C415.082 60.4701 414.031 58.7618 412.689 57.3271C411.342 55.8962 409.767 54.7869 407.954 53.9956C406.142 53.208 404.185 52.8124 402.08 52.8124C399.975 52.8124 398.019 53.208 396.206 53.9956C394.394 54.7832 392.814 55.8962 391.472 57.3271C390.125 58.7581 389.075 60.4701 388.316 62.4557C387.555 64.4413 387.177 66.6339 387.177 69.0299C387.177 71.426 387.555 73.6186 388.316 75.6042C389.075 77.5898 390.129 79.2981 391.472 80.7327C392.814 82.1637 394.394 83.273 396.206 84.0642C398.019 84.8518 399.975 85.2474 402.08 85.2474Z" fill="black"/>
</g>
<defs>
<clipPath id="clip0_1237_8143">
<rect width="424" height="116" fill="white"/>
</clipPath>
</defs>
</svg>
