<svg width="424" height="116" viewBox="0 0 424 116" fill="none" xmlns="http://www.w3.org/2000/svg">
<g clip-path="url(#clip0_1237_8131)">
<path d="M80.9548 116V92.5796C80.9548 88.2535 77.9291 84.7445 74.2006 84.7445H48.7964V116H80.9548Z" fill="white"/>
<path d="M0 106.231C0 95.5155 0 84.8 0 74.0844C43.2515 61.3611 86.503 48.6341 129.751 35.9108C129.751 46.6263 129.751 57.3418 129.751 68.0574C86.503 80.7807 43.2515 93.504 0 106.231Z" fill="white"/>
<path d="M19.4307 0C30.1501 0 40.8696 0 51.5891 0C54.5112 15.478 62.1606 22.9249 65.4341 25.6722C74.8738 33.5998 86.1037 34.5353 102.952 35.9403C114.23 36.8795 123.555 36.4099 129.751 35.8442V67.9908C129.777 67.61 58.6651 74.957 31.1895 39.2127C21.1914 26.2083 19.4381 10.7008 19.4307 0C22.0495 0 24.6646 0 27.2835 0Z" fill="white"/>
<path d="M205.002 92.6979C200.386 92.6979 196.117 91.8956 192.204 90.2871C188.286 88.6824 184.913 86.4306 182.076 83.5391C179.239 80.6476 177.019 77.2273 175.414 73.2857C173.805 69.3404 173.002 65.0032 173.002 60.2703C173.002 55.5374 173.805 51.2002 175.414 47.2549C177.019 43.3096 179.243 39.893 182.076 37.0015C184.909 34.11 188.286 31.8619 192.204 30.2535C196.117 28.6487 200.386 27.8427 205.002 27.8427C208.098 27.8427 210.905 28.1643 213.417 28.8077C215.928 29.4511 218.196 30.2978 220.212 31.3479C222.228 32.398 223.996 33.5961 225.516 34.942C227.036 36.2879 228.349 37.6597 229.463 39.0611C232.093 42.3334 234.02 46.0421 235.248 50.1907H227.358C226.248 47.4434 224.699 44.9624 222.712 42.7401C221.836 41.8047 220.841 40.8987 219.731 40.0224C218.621 39.1461 217.334 38.3585 215.873 37.656C214.412 36.9534 212.773 36.384 210.964 35.9477C209.152 35.5114 207.166 35.2895 205.002 35.2895C201.495 35.2895 198.266 35.8886 195.314 37.0866C192.363 38.2846 189.821 39.9781 187.687 42.1707C185.553 44.3597 183.888 46.9923 182.69 50.0576C181.491 53.1266 180.892 56.5284 180.892 60.2666C180.892 64.0048 181.491 67.4103 182.69 70.4756C183.888 73.5445 185.553 76.1735 187.687 78.3625C189.821 80.5551 192.363 82.2486 195.314 83.4466C198.266 84.6446 201.495 85.2436 205.002 85.2436C207.221 85.2436 209.267 85.0107 211.138 84.5411C213.01 84.0752 214.689 83.4614 216.18 82.6997C217.671 81.9417 218.984 81.0765 220.127 80.1151C221.266 79.1501 222.276 78.1739 223.152 77.1792C225.139 74.8424 226.689 72.1247 227.798 69.0298H235.688C234.286 73.4706 232.237 77.4159 229.552 80.862C228.383 82.3817 227.022 83.8423 225.475 85.2436C223.926 86.645 222.143 87.9022 220.127 89.0115C218.111 90.1207 215.843 91.0118 213.332 91.6848C210.817 92.3541 208.042 92.6942 205.002 92.6942V92.6979Z" fill="white"/>
<path d="M258.659 91.8216C255.796 91.8216 253.092 91.2522 250.551 90.1133C248.009 88.9745 245.772 87.3956 243.844 85.3804C241.917 83.3653 240.393 80.9545 239.284 78.1517C238.174 75.3452 237.619 72.3095 237.619 69.0372C237.619 65.7649 238.174 62.7255 239.284 59.9227C240.393 57.12 241.914 54.7091 243.844 52.694C245.772 50.6788 248.009 49.0999 250.551 47.9611C253.092 46.8222 255.796 46.2528 258.659 46.2528C261.522 46.2528 263.948 46.6632 265.934 47.4804C267.921 48.2976 269.541 49.2035 270.798 50.1981C272.056 51.1928 273.24 52.535 274.349 54.2285H274.438V47.1291H281.451V90.949H274.438V83.9384H274.349C273.24 85.6319 272.056 86.963 270.798 87.9244C269.541 88.8894 267.921 89.7805 265.934 90.5977C263.948 91.4149 261.522 91.8253 258.659 91.8253V91.8216ZM259.535 85.2473C261.64 85.2473 263.597 84.8517 265.409 84.0641C267.222 83.2765 268.797 82.1673 270.144 80.7326C271.486 79.3016 272.541 77.5934 273.299 75.6041C274.057 73.6185 274.438 71.4258 274.438 69.0298C274.438 66.6338 274.057 64.4448 273.299 62.4555C272.537 60.4699 271.486 58.7617 270.144 57.327C268.797 55.8961 267.222 54.7868 265.409 53.9955C263.597 53.2079 261.64 52.8123 259.535 52.8123C257.431 52.8123 255.474 53.2079 253.661 53.9955C251.849 54.7831 250.269 55.8961 248.927 57.327C247.58 58.758 246.53 60.4699 245.772 62.4555C245.01 64.4411 244.632 66.6338 244.632 69.0298C244.632 71.4258 245.01 73.6185 245.772 75.6041C246.53 77.5897 247.584 79.2979 248.927 80.7326C250.269 82.1636 251.849 83.2728 253.661 84.0641C255.474 84.8517 257.431 85.2473 259.535 85.2473Z" fill="white"/>
<path d="M288.638 47.1255H295.651V65.092H320.197V47.1255H327.211V90.9453H320.197V71.6662H295.651V90.9453H288.638V47.1255Z" fill="white"/>
<path d="M352.811 91.8216C349.948 91.8216 347.244 91.2522 344.703 90.1133C342.161 88.9745 339.924 87.3956 337.996 85.3804C336.069 83.3653 334.545 80.9545 333.439 78.1517C332.33 75.3452 331.775 72.3095 331.775 69.0372C331.775 65.7649 332.33 62.7255 333.439 59.9227C334.549 57.12 336.069 54.7091 337.996 52.694C339.924 50.6788 342.161 49.0999 344.703 47.9611C347.244 46.8222 349.948 46.2528 352.811 46.2528C355.674 46.2528 358.1 46.6632 360.086 47.4804C362.073 48.2976 363.697 49.2035 364.954 50.1981C366.212 51.1928 367.392 52.535 368.505 54.2285H368.594V47.1291H375.607V90.949H368.594V83.9384H368.505C367.396 85.6319 366.212 86.963 364.954 87.9244C363.697 88.8894 362.076 89.7805 360.086 90.5977C358.1 91.4149 355.674 91.8253 352.811 91.8253V91.8216ZM353.691 85.2473C355.796 85.2473 357.752 84.8517 359.565 84.0641C361.377 83.2765 362.953 82.1673 364.3 80.7326C365.642 79.3016 366.696 77.5934 367.455 75.6041C368.213 73.6185 368.594 71.4258 368.594 69.0298C368.594 66.6338 368.213 64.4448 367.455 62.4555C366.693 60.4699 365.642 58.7617 364.3 57.327C362.953 55.8961 361.377 54.7868 359.565 53.9955C357.752 53.2079 355.796 52.8123 353.691 52.8123C351.586 52.8123 349.63 53.2079 347.817 53.9955C346.005 54.7831 344.425 55.8961 343.083 57.327C341.736 58.758 340.686 60.4699 339.927 62.4555C339.165 64.4411 338.788 66.6338 338.788 69.0298C338.788 71.4258 339.169 73.6185 339.927 75.6041C340.686 77.5897 341.74 79.2979 343.083 80.7326C344.425 82.1636 346.005 83.2728 347.817 84.0641C349.63 84.8517 351.586 85.2473 353.691 85.2473Z" fill="white"/>
<path d="M401.204 91.8216C398.341 91.8216 395.637 91.2522 393.095 90.1133C390.554 88.9745 388.316 87.3956 386.389 85.3804C384.462 83.3653 382.938 80.9545 381.829 78.1517C380.719 75.3452 380.164 72.3095 380.164 69.0372C380.164 65.7649 380.719 62.7255 381.829 59.9227C382.938 57.12 384.458 54.7091 386.389 52.694C388.316 50.6788 390.554 49.0999 393.095 47.9611C395.637 46.8222 398.341 46.2528 401.204 46.2528C404.066 46.2528 406.493 46.6632 408.479 47.4804C410.466 48.2976 412.086 49.2035 413.343 50.1981C414.601 51.1928 415.785 52.535 416.894 54.2285H416.983V47.1291H423.996V90.949H416.983V83.9384H416.894C415.785 85.6319 414.601 86.963 413.343 87.9244C412.086 88.8894 410.466 89.7805 408.479 90.5977C406.493 91.4149 404.066 91.8253 401.204 91.8253V91.8216ZM402.08 85.2473C404.185 85.2473 406.142 84.8517 407.954 84.0641C409.767 83.2765 411.342 82.1673 412.689 80.7326C414.031 79.3016 415.086 77.5934 415.844 75.6041C416.602 73.6185 416.983 71.4258 416.983 69.0298C416.983 66.6338 416.602 64.4448 415.844 62.4555C415.082 60.4699 414.031 58.7617 412.689 57.327C411.342 55.8961 409.767 54.7868 407.954 53.9955C406.142 53.2079 404.185 52.8123 402.08 52.8123C399.975 52.8123 398.019 53.2079 396.206 53.9955C394.394 54.7831 392.814 55.8961 391.472 57.327C390.125 58.758 389.075 60.4699 388.316 62.4555C387.555 64.4411 387.177 66.6338 387.177 69.0298C387.177 71.4258 387.555 73.6185 388.316 75.6041C389.075 77.5897 390.129 79.2979 391.472 80.7326C392.814 82.1636 394.394 83.2728 396.206 84.0641C398.019 84.8517 399.975 85.2473 402.08 85.2473Z" fill="white"/>
</g>
<defs>
<clipPath id="clip0_1237_8131">
<rect width="424" height="116" fill="white"/>
</clipPath>
</defs>
</svg>
